# xmcd
#
# Track frame offsets:
#	150
#	21192
#	39654
#	58303
#	80580
#	106438
#	127965
#	153709
#	175537
#	193701
#	215798
#
# Disc length: 3195 seconds
#
# Revision: 2967695013
# Processed by: cddbd v1.5.2PL0 Copyright (c) Steve Scherf et al.
# Submitted via: EZCDAudioConverter 8.0.2.1
#
DISCID=9c0c790b
DTITLE=Dương Triệu Vũ - Thiên Đàng Đánh Mất
DYEAR=2007
DGENRE=World Pop
TTITLE0=Lại một lần nữa
TTITLE1=Đợi em trong mơ
TTITLE2=Thương nhau ngày mưa
TTITLE3=Ngày xưa em hỡi
TTITLE4=Goodbye My Love (Tạm Biệt)
TTITLE5=Cỏ úa
TTITLE6=Con đường không có tên anh
TTITLE7=Từ đây thôi nhé
TTITLE8=Thiên Đàng Đánh Mất
TTITLE9=20 năm tình cũ
TTITLE10=Một lần được yêu
EXTD=
EXTT0=
EXTT1=
EXTT2=
EXTT3=
EXTT4=
EXTT5=
EXTT6=
EXTT7=
EXTT8=
EXTT9=
EXTT10=
PLAYORDER=
